# xmcd
#
# Track frame offsets:
#	150
#	12802
#	28917
#	41251
#	51163
#	66496
#	79958
#	96946
#	107797
#	127522
#	140177
#	153786
#	171957
#	182157
#	192644
#	203540
#	223396
#	235802
#	250136
#	260214
#
# Disc length: 3691 seconds
#
# Revision: 1
# Processed by: cddbd v1.5.2PL0 Copyright (c) Steve Scherf et al.
# Submitted via: audiograbber 1.83.01
#
DISCID=270e6914
DTITLE=Panhandle Alks - ALK-A-BILLY LEBT NOCH IMMER
DYEAR=2011
DGENRE=Rockabilly
TTITLE0=Record Hop
TTITLE1=Alter Rock'n'Roller
TTITLE2=Bom Bop Baby
TTITLE3=So long I'm gone
TTITLE4=Bleib entspannt
TTITLE5=Mein Tag
TTITLE6=All die ganzen Jahre
TTITLE7=Mühlen Bop
TTITLE8=Revolvermann III
TTITLE9=Alk-a-Billy lebt noch immer
TTITLE10=Emily
TTITLE11=Sandmännchen im Lummerland
TTITLE12=Scat Bop
TTITLE13=Es wird weitergeh'n
TTITLE14=Und nachts träumen sie von Big Black Cadillacs
TTITLE15=Die Hoffnung auf ein Wiederseh'n
TTITLE16=Wir wollen feiern
TTITLE17=Verrockte Tage
TTITLE18=Rock-a-Billy Juke Box Queen
TTITLE19=Die 180 Geister von Alamo
EXTD=
EXTT0=
EXTT1=
EXTT2=
EXTT3=
EXTT4=
EXTT5=
EXTT6=
EXTT7=
EXTT8=
EXTT9=
EXTT10=
EXTT11=
EXTT12=
EXTT13=
EXTT14=
EXTT15=
EXTT16=
EXTT17=
EXTT18=
EXTT19=
PLAYORDER=
